<svg xmlns="http://www.w3.org/2000/svg" width="96" height="96" viewBox="0 0 96 96">
  <g id="Group_361" data-name="Group 361" transform="translate(-627 -2800)">
    <g id="Rectangle_110" data-name="Rectangle 110" transform="translate(627 2800)" fill="#fff" stroke="#707070" stroke-width="1" opacity="0">
      <rect width="96" height="96" stroke="none"/>
      <rect x="0.5" y="0.5" width="95" height="95" fill="none"/>
    </g>
    <g id="_x31_3_x2C__App_x2C__coding_x2C__development_x2C__mobile_x2C__code" transform="translate(538 2788)">
      <g id="XMLID_1433_" transform="translate(111 16)">
        <g id="XMLID_1434_" transform="translate(0 0)">
          <path id="XMLID_1443_" d="M111,147.857h52.76V86H111Zm42.754-10.916H121.006a.91.91,0,0,1,0-1.819h32.748a.91.91,0,0,1,0,1.819Zm.91-8.187a.91.91,0,0,1-.91.91H121.006a.91.91,0,1,1,0-1.819h32.748A.91.91,0,0,1,154.664,128.754Zm-33.657-8.187h21.832a.91.91,0,1,1,0,1.819H121.006a.91.91,0,1,1,0-1.819Zm-.91-6.368a.91.91,0,0,1,.91-.91h21.832a.91.91,0,1,1,0,1.819H121.006A.91.91,0,0,1,120.1,114.2ZM138.556,94.83a.91.91,0,1,1,1.286-1.286l3.639,3.639a.909.909,0,0,1,0,1.286l-3.639,3.639a.91.91,0,1,1-1.286-1.286l3-3Zm-11.086,8.047,5.458-10.916a.91.91,0,0,1,1.627.814L129.1,103.69a.91.91,0,1,1-1.627-.814Zm-8.926-5.694,3.639-3.639a.91.91,0,0,1,1.286,1.286l-3,3,3,3a.91.91,0,1,1-1.286,1.286l-3.639-3.639A.91.91,0,0,1,118.544,97.182Z" transform="translate(-111 -73.265)"/>
          <path id="XMLID_195_" d="M156.129,16h-37.5A7.639,7.639,0,0,0,111,23.631v3.285h52.76V23.631A7.639,7.639,0,0,0,156.129,16Z" transform="translate(-111 -16)"/>
          <path id="XMLID_194_" d="M111,439.285a7.639,7.639,0,0,0,7.631,7.631h37.5a7.639,7.639,0,0,0,7.631-7.631V436H111Z" transform="translate(-111 -359.589)"/>
        </g>
      </g>
    </g>
  </g>
</svg>
