<svg xmlns="http://www.w3.org/2000/svg" width="82.999" height="81.69" viewBox="0 0 82.999 81.69">
  <path id="writing" d="M32.395,95.571a2.109,2.109,0,0,1,0-4.217h8.1a39.673,39.673,0,0,0,.545-9.952H15.959A5.958,5.958,0,0,1,10,75.443V27.8a5.958,5.958,0,0,1,5.958-5.958H43.994l.187-.324,9.728,5.616-13.1,22.684L31.084,44.2,41.851,25.552H15.959A2.246,2.246,0,0,0,13.712,27.8V68.558H89.289V27.8a2.245,2.245,0,0,0-2.247-2.247H57.918l-12.05-6.957,1.1-1.9a5.616,5.616,0,0,1,9.969,5.15H87.042A5.958,5.958,0,0,1,93,27.8V75.443A5.958,5.958,0,0,1,87.042,81.4H61.769a38.049,38.049,0,0,0,.639,9.952h8.126a2.109,2.109,0,1,1,0,4.217H32.395Zm41.812-48.1a1.686,1.686,0,0,0-1.687-1.687H55.044a1.687,1.687,0,1,0,0,3.374H72.519A1.686,1.686,0,0,0,74.206,47.471ZM33.886,54.79l4.4-2.538L30.241,47.61v7.2a1.687,1.687,0,0,0,.241,3.357H72.519a1.687,1.687,0,1,0,0-3.374Z" transform="translate(-10.001 -13.881)" fill-rule="evenodd"/>
</svg>
