<svg xmlns="http://www.w3.org/2000/svg" width="80.109" height="84.174" viewBox="0 0 80.109 84.174">
  <path id="email-marketing" d="M59.889,50.815l3.06,7.36a1.584,1.584,0,0,1-.744,2.018l-2.3,1.182a1.591,1.591,0,0,1-2.2-.807l-3.447-8.245ZM79.147,72.951l26.768,23.2a3.459,3.459,0,0,0,.192-1.13V51a3.465,3.465,0,0,0-.188-1.122Zm-12.99,6.6,37.1-31.974a3.541,3.541,0,0,0-.63-.06H93.371A7.227,7.227,0,0,1,80.2,51.877a41.007,41.007,0,0,0-16.979-2.107l2.939,7.069A5.081,5.081,0,0,1,63.8,63.29l-2.3,1.182a5.074,5.074,0,0,1-7.005-2.561l-3.676-8.794a11.628,11.628,0,0,1-11.252-5.6h-10.1Zm1.13,3.626L76.48,75.25l26.764,23.193a3.426,3.426,0,0,1-.62.059H29.473L55.95,75.26l9.056,7.905a1.743,1.743,0,0,0,2.281.009ZM53.3,72.951,26.374,96.586A3.466,3.466,0,0,1,26,95.019V51a3.457,3.457,0,0,1,.373-1.559ZM94.953,39.4l5.474,1.467a1.642,1.642,0,0,0,.842-3.174L95.8,36.222a1.642,1.642,0,0,0-.842,3.174ZM92.318,23.244l4.007-4.007a1.642,1.642,0,1,0-2.317-2.328L90,20.916a1.642,1.642,0,0,0,2.317,2.328Zm4.811,7.375,5.189-1.39a1.651,1.651,0,0,0-.855-3.19l-5.189,1.39a1.651,1.651,0,1,0,.855,3.19Zm-10.2,5.573a4.433,4.433,0,1,0-2.274-8.486l-2.84-10.6A3.746,3.746,0,0,0,74.5,18.687h0c-3.474,4.721-9.37,9.359-16.62,12.717l4.012,14.972c7.961-.708,15.4.391,20.767,2.742h0a3.746,3.746,0,0,0,7.11-2.327ZM58.6,47.555l-7.027,1.883a8.061,8.061,0,0,1-9.844-5.683h0a8.061,8.061,0,0,1,5.683-9.844l7.027-1.883Q56.518,39.791,58.6,47.555Z" transform="translate(-25.998 -14.328)" fill-rule="evenodd"/>
</svg>
