<svg id="vector" xmlns="http://www.w3.org/2000/svg" width="84" height="84" viewBox="0 0 84 84">
  <g id="Group_345" data-name="Group 345">
    <g id="Group_344" data-name="Group 344">
      <path id="Path_309" data-name="Path 309" d="M81.539,0H71.531A2.46,2.46,0,0,0,69.07,2.461V4.922H48.929a7.339,7.339,0,0,0-13.859,0H14.93V2.461A2.46,2.46,0,0,0,12.469,0H2.461A2.46,2.46,0,0,0,0,2.461V12.3a2.46,2.46,0,0,0,2.461,2.461H12.469A2.46,2.46,0,0,0,14.93,12.3V9.811H25.037a32.1,32.1,0,0,0-14.845,25.2,7.361,7.361,0,1,0,4.912.111A27.005,27.005,0,0,1,35.466,10.746a7.321,7.321,0,0,0,13.068,0A27.005,27.005,0,0,1,68.9,35.124a7.4,7.4,0,1,0,4.912-.111A32.044,32.044,0,0,0,58.963,9.844H69.07V12.3a2.46,2.46,0,0,0,2.461,2.461H81.539A2.46,2.46,0,0,0,84,12.3V2.461A2.46,2.46,0,0,0,81.539,0Z"/>
    </g>
  </g>
  <g id="Group_347" data-name="Group 347" transform="translate(25.15 73.992)">
    <g id="Group_346" data-name="Group 346">
      <path id="Path_310" data-name="Path 310" d="M186.887,457.955a10.008,10.008,0,0,0-9.36-6.955H162.761a10.008,10.008,0,0,0-9.36,6.955,2.424,2.424,0,0,0,2.394,3.052h28.7A2.425,2.425,0,0,0,186.887,457.955Z" transform="translate(-153.294 -451)"/>
    </g>
  </g>
  <g id="Group_349" data-name="Group 349" transform="translate(19.852 21.567)">
    <g id="Group_348" data-name="Group 348">
      <path id="Path_311" data-name="Path 311" d="M164.883,160.37l-19.274-28.911v23.347a7.383,7.383,0,1,1-4.922,0V131.459L121.413,160.37a2.46,2.46,0,0,0,.308,3.105,31.075,31.075,0,0,1,8.52,16.581,14.654,14.654,0,0,1,5.524-1.094h14.766a14.657,14.657,0,0,1,5.524,1.094,31.073,31.073,0,0,1,8.52-16.581A2.46,2.46,0,0,0,164.883,160.37Z" transform="translate(-121 -131.459)"/>
    </g>
  </g>
  <g id="Group_351" data-name="Group 351" transform="translate(39.539 49.383)">
    <g id="Group_350" data-name="Group 350">
      <path id="Path_312" data-name="Path 312" d="M243.461,301a2.461,2.461,0,1,0,2.461,2.461A2.463,2.463,0,0,0,243.461,301Z" transform="translate(-241 -301)"/>
    </g>
  </g>
</svg>
