<svg xmlns="http://www.w3.org/2000/svg" width="80.42" height="80.383" viewBox="0 0 80.42 80.383">
  <g id="Group_459" data-name="Group 459" transform="translate(-1165.23 -1216.89)">
    <rect id="Rectangle_171" data-name="Rectangle 171" width="22.185" height="5.546" transform="translate(1194.347 1286.181)"/>
    <path id="Path_401" data-name="Path 401" d="M1173.55,1250.13a8.32,8.32,0,1,0,8.32,8.32A8.326,8.326,0,0,0,1173.55,1250.13Zm0,12.48a4.16,4.16,0,1,1,4.16-4.16A4.157,4.157,0,0,1,1173.55,1262.61Z"/>
    <path id="Path_402" data-name="Path 402" d="M1220.695,1294.5h-30.5a4.17,4.17,0,0,0-3.924,2.773h38.344A4.171,4.171,0,0,0,1220.695,1294.5Z"/>
    <path id="Path_403" data-name="Path 403" d="M1224.85,1216.89h-38.82a1.385,1.385,0,0,0-1.39,1.38v16.64a1.387,1.387,0,0,0,1.39,1.39h15.25v4.76a.765.765,0,0,0,.81.73.686.686,0,0,0,.34-.11l8.14-5.39h14.28a1.372,1.372,0,0,0,1.39-1.38v-16.64A1.385,1.385,0,0,0,1224.85,1216.89Zm-30.37,16.64h-2.91a4.183,4.183,0,0,1-4.16-4.16h2.78a1.383,1.383,0,0,0,1.38,1.38h2.78a1.385,1.385,0,1,0,.07-2.77h-2.85a4.161,4.161,0,0,1,0-8.32h2.78a4.17,4.17,0,0,1,4.16,4.16h-2.78a1.385,1.385,0,0,0-1.38-1.39h-2.78a1.39,1.39,0,0,0-.07,2.78h2.85a4.161,4.161,0,0,1,.13,8.32Zm15.12-11.1h-4.16a1.4,1.4,0,0,0-1.39,1.39v1.39h5.55v2.77h-5.55v1.38a1.387,1.387,0,0,0,1.39,1.39h4.16v2.77h-4.16a4.163,4.163,0,0,1-4.16-4.16v-5.54a4.176,4.176,0,0,1,4.16-4.16h4.16Zm13.84,9.5a1.661,1.661,0,0,1-3.32,0v-5.55l-.73,1.03a2.041,2.041,0,0,1-.36.36,1.7,1.7,0,0,1-2.37-.36l-.73-1.03v5.55a1.662,1.662,0,0,1-3.32,0v-10.68a1.629,1.629,0,0,1,1.63-1.59,1.666,1.666,0,0,1,1.39.7l2.4,3.34,2.39-3.34a1.649,1.649,0,0,1,1.27-.7,1.681,1.681,0,0,1,1.75,1.59Z"/>
    <path id="Path_404" data-name="Path 404" d="M1184.262,1255.583a10.993,10.993,0,0,1,.285,1.483h7.029v-2.774h5.547v12.474h5.544v-18.021h5.546v18.021h5.546v-15.247h5.545v5.547h9.706v-12.481H1240.1v-4.158a4.166,4.166,0,0,0-4.161-4.161h-7.177a4.153,4.153,0,0,1-3.914,2.8h-13.447l-7.436,4.929a3.518,3.518,0,0,1-5.461-2.929v-2h-12.479a4.151,4.151,0,0,1-3.914-2.8h-7.178a4.166,4.166,0,0,0-4.161,4.161v7.3A11.035,11.035,0,0,1,1184.262,1255.583Z"/>
    <path id="Path_405" data-name="Path 405" d="M1229.01,1259.837h-9.7v6.934h4.161v2.772h-36.051v-2.772h4.161v-6.934h-7.029a11.034,11.034,0,0,1-13.771,9.341v3.138H1240.1v-2.773H1229.01Z"/>
    <path id="Path_406" data-name="Path 406" d="M1231.78,1247.36v19.41h13.87v-19.41Zm11.1,16.64h-8.32v-2.78h8.32Zm0-5.55h-8.32v-2.77h8.32Zm0-5.55h-8.32v-2.77h8.32Z"/>
    <path id="Path_407" data-name="Path 407" d="M1170.78,1275.09v4.16a4.157,4.157,0,0,0,4.16,4.16h61a4.157,4.157,0,0,0,4.16-4.16v-4.16Zm29.11,5.55a1.39,1.39,0,1,1,1.39-1.39A1.385,1.385,0,0,1,1199.89,1280.64Zm5.55,0a1.39,1.39,0,1,1,1.39-1.39A1.387,1.387,0,0,1,1205.44,1280.64Zm5.55,0a1.39,1.39,0,1,1,1.38-1.39A1.387,1.387,0,0,1,1210.99,1280.64Z"/>
  </g>
</svg>
