<svg xmlns="http://www.w3.org/2000/svg" width="96" height="96" viewBox="0 0 96 96">
  <g id="Group_364" data-name="Group 364" transform="translate(-1041 -2792)">
    <g id="Rectangle_112" data-name="Rectangle 112" transform="translate(1041 2792)" fill="#fff" stroke="#707070" stroke-width="1" opacity="0">
      <rect width="96" height="96" stroke="none"/>
      <rect x="0.5" y="0.5" width="95" height="95" fill="none"/>
    </g>
    <path id="search-engine" d="M99.867,33.355V83.214a4.839,4.839,0,0,1-4.825,4.825H85.849l-9.6-9.6a4.826,4.826,0,0,0-3.882-1.386l-2-2a20.966,20.966,0,0,0-2.584-25.088h4.26a1.751,1.751,0,0,0,1.747-1.747V43.062a1.751,1.751,0,0,0-1.747-1.747H28.624a1.751,1.751,0,0,0-1.747,1.747v5.154a1.751,1.751,0,0,0,1.747,1.747h8.425a20.964,20.964,0,0,0,26.2,32.207l2,2a4.826,4.826,0,0,0,1.372,3.867h-45.8A4.839,4.839,0,0,1,16,83.214V33.355ZM52.415,45.7A18.517,18.517,0,1,0,63.551,79.015l4.439,4.439a2.384,2.384,0,0,0,.375,2.87l12.85,12.85a2.382,2.382,0,0,0,3.359,0l2.8-2.8a2.382,2.382,0,0,0,0-3.359L74.52,80.17a2.384,2.384,0,0,0-2.87-.375l-4.439-4.439A18.517,18.517,0,0,0,52.415,45.7Zm0,5.141A13.376,13.376,0,1,0,65.791,64.22,13.376,13.376,0,0,0,52.415,50.844ZM20.825,16H95.042a4.839,4.839,0,0,1,4.825,4.825V30.909H16V20.825A4.839,4.839,0,0,1,20.825,16ZM31.98,21.75a1.7,1.7,0,1,0,1.7,1.7A1.7,1.7,0,0,0,31.98,21.75Zm6.76,0a1.7,1.7,0,1,0,1.7,1.7A1.7,1.7,0,0,0,38.74,21.75Zm-13.52,0a1.7,1.7,0,1,0,1.7,1.7A1.7,1.7,0,0,0,25.22,21.75ZM87.243,41.315H82.089a1.751,1.751,0,0,0-1.747,1.747v5.154a1.751,1.751,0,0,0,1.747,1.747h5.154a1.751,1.751,0,0,0,1.747-1.747V43.062A1.751,1.751,0,0,0,87.243,41.315Z" transform="translate(1031 2782)" fill-rule="evenodd"/>
  </g>
</svg>
