<svg xmlns="http://www.w3.org/2000/svg" width="85.311" height="85.662" viewBox="0 0 85.311 85.662">
  <g id="Glyph" transform="translate(-0.238)">
    <g id="Glyph-2" data-name="Glyph" transform="translate(0.239 0)">
      <path id="Path_109" data-name="Path 109" d="M73.995,81.626a15.519,15.519,0,0,1-8.82-10.755,1.026,1.026,0,0,0-.335-.549A18.425,18.425,0,0,1,60.75,65.27a4.457,4.457,0,0,1,4.624-6.592,6.941,6.941,0,0,0,1.633.1,1,1,0,0,0,.75-.408,15.02,15.02,0,0,1,8.68-5.755,1,1,0,0,0,.763-.97V44.323a1.009,1.009,0,0,0-.863-1c-.582-.087-1.1-.181-1.573-.294A17.069,17.069,0,0,1,69.2,40.569a.95.95,0,0,0-.636-.174,20.4,20.4,0,0,1-7.268-.9,4.663,4.663,0,0,1-1.285-8.292,8.541,8.541,0,0,0,1.673-1.486.98.98,0,0,0,.234-.8,17.069,17.069,0,0,1,1.3-9.342A16.872,16.872,0,0,1,76.323,9.65a1,1,0,0,0,.857-1.044A9.014,9.014,0,0,0,68.166,0H34.035A9.048,9.048,0,0,0,25,9.035V23.959a1.013,1.013,0,0,0,1.111,1,22.76,22.76,0,0,1,2.309-.127A22.049,22.049,0,0,1,48.477,37.765a1.008,1.008,0,0,0,.609.549,12.912,12.912,0,0,0,4,.642,5.235,5.235,0,0,1,4.042,8.533,25.9,25.9,0,0,1-7.609,6.525.968.968,0,0,0-.462.529A22,22,0,0,1,28.386,68.864a22.425,22.425,0,0,1-2.275-.134,1.014,1.014,0,0,0-1.111,1v6.9a9.048,9.048,0,0,0,9.035,9.035H68.166a8.989,8.989,0,0,0,6.1-2.384,1,1,0,0,0-.269-1.652ZM44.809,7.362a4.252,4.252,0,0,1-3.674-2.356l-1.606-3H62.678l-1.613,3a4.252,4.252,0,0,1-3.674,2.356Zm13.318,69.6H44.073a1,1,0,1,1,0-2.008H58.127a1,1,0,0,1,0,2.008Z" transform="translate(-8.429 0)"/>
      <path id="Path_110" data-name="Path 110" d="M105.483,101.677h2.652L108.852,99H106.2Z" transform="translate(-35.05 -32.746)"/>
      <path id="Path_111" data-name="Path 111" d="M93.444,81.932a13.141,13.141,0,0,0-6.306,5.327.3.3,0,0,1-.2.134,9.641,9.641,0,0,1-3.542.054,2.439,2.439,0,0,0-2.529,3.611,15.787,15.787,0,0,0,4.35,5.075.287.287,0,0,1,.119.187A13.811,13.811,0,0,0,98.694,107.81a13.374,13.374,0,0,0,10.842-20.989A13.519,13.519,0,0,0,93.444,81.932Zm11.164,11.109h-1.925l-.717,2.677h1.973a1,1,0,0,1,0,2.008h-2.511l-.642,2.394a1,1,0,1,1-1.941-.52l.5-1.874H96.7l-.649,2.423a1,1,0,1,1-1.941-.52l.51-1.9H93.231a1,1,0,0,1,0-2.008h1.925l.717-2.677H93.9a1,1,0,0,1,0-2.008h2.511l.642-2.394a1,1,0,0,1,1.941.52l-.5,1.874h2.651l.649-2.423a1,1,0,0,1,1.941.52l-.513,1.9h1.387a1,1,0,0,1,0,2.008Z" transform="translate(-26.802 -26.787)"/>
      <path id="Path_112" data-name="Path 112" d="M82.349,26.1a14.965,14.965,0,0,0-.97,9.235.489.489,0,0,1-.082.383,11,11,0,0,1-2.862,2.866,2.642,2.642,0,0,0,.723,4.7,17.424,17.424,0,0,0,7.418.727.436.436,0,0,1,.324.082,15.286,15.286,0,0,0,9.188,3.125c11,.05,18.393-11.986,13.309-21.863C103.687,14.264,87.41,14.64,82.349,26.1ZM97.089,38.93a1.862,1.862,0,0,1-1.838,0c-3.926-2.232-6.157-5-6.062-8.516a3.939,3.939,0,0,1,3.921-3.957,3.893,3.893,0,0,1,3.06,1.484,3.893,3.893,0,0,1,3.06-1.484,3.939,3.939,0,0,1,3.921,3.957C103.249,33.927,101.015,36.7,97.089,38.93Z" transform="translate(-25.725 -5.711)"/>
      <path id="Path_113" data-name="Path 113" d="M39.229,66.386a.952.952,0,0,1,.486-.548,23.3,23.3,0,0,0,7.666-6.372,3.226,3.226,0,0,0-2.489-5.247,15.3,15.3,0,0,1-5.529-1.065,1.033,1.033,0,0,1-.59-.57,19.973,19.973,0,0,0-7.981-9.473C16.646,34.244-1.5,46.014.372,62.524c1.1,9.757,10.132,17.818,19.864,17.614A20.164,20.164,0,0,0,39.229,66.386ZM15.471,68.614a1.986,1.986,0,0,1-1,.272H11.79a2.008,2.008,0,0,1-2.008-2.008V56.84a2.008,2.008,0,0,1,2.008-2.008h2.677a2,2,0,0,1,1,.268Zm2.008-.9V55.691c1.966-1.824,3.231-5.539,4.074-7.289,1.483-3.084,4.47,1.053,3.74,3.279-.252.771-.787,3.145-.787,3.145a6.023,6.023,0,0,1,6.023,6.023v2.008a6.023,6.023,0,0,1-6.023,6.023H20.769a4.014,4.014,0,0,1-1.795-.424Z" transform="translate(-0.239 -13.255)"/>
    </g>
  </g>
</svg>
