<svg xmlns="http://www.w3.org/2000/svg" width="82.54" height="87.672" viewBox="0 0 82.54 87.672">
  <g id="graphic-design" transform="translate(-14.983 0)">
    <path id="Path_318" data-name="Path 318" d="M69.829,148.79a14.791,14.791,0,0,1-4.224,8.668c-2.9,2.9-6.947,4.264-12.033,4.058-3.567-.142-5.214.791-5.485.961a5.992,5.992,0,0,1-8.182-.274,6.03,6.03,0,0,1-.935-7.264l.957-1.517a11.682,11.682,0,0,0,.663-4.887c-.2-5.087,1.161-9.135,4.058-12.033a14.71,14.71,0,0,1,8.688-4.233,14.012,14.012,0,0,1,2.92-6.072H21.842a6.865,6.865,0,0,0-6.858,6.856v34.005H86.526V133.293l-8.694,10.654A14.011,14.011,0,0,1,69.829,148.79Z" transform="translate(-0.001 -104.588)"/>
    <path id="Path_319" data-name="Path 319" d="M14.983,397.019a6.865,6.865,0,0,0,6.858,6.855h19.49v5.88h-4.32a2.569,2.569,0,0,0,0,5.137H64.5a2.569,2.569,0,0,0,0-5.137h-4.32v-5.88h19.49a6.865,6.865,0,0,0,6.858-6.855v-2.192H14.983v2.192Z" transform="translate(0 -327.219)"/>
    <path id="Path_320" data-name="Path 320" d="M180.892,210.742h-.008a.856.856,0,0,0,1.216,1.206c.052-.05,2.646-2.447,9.036-2.191,3.595.145,6.351-.716,8.193-2.558a9.681,9.681,0,1,0-13.691-13.691c-1.842,1.842-2.7,4.6-2.558,8.193.258,6.424-2.167,9.011-2.186,9.031Z" transform="translate(-137.293 -158.03)"/>
    <path id="Path_321" data-name="Path 321" d="M280.809,137.356a8.853,8.853,0,0,0,4.308-2.87l3.282-4.022-11.691-11.691-4.005,3.271a8.841,8.841,0,0,0-2.878,4.3,14.815,14.815,0,0,1,10.985,11.007Z" transform="translate(-211.203 -98.435)"/>
    <path id="Path_322" data-name="Path 322" d="M359.854,1.542a5.234,5.234,0,0,0-7.033-.353L333.376,17.072l10.957,10.957L360.208,8.573a5.234,5.234,0,0,0-.354-7.031Z" transform="translate(-263.873 0)"/>
  </g>
</svg>
